<?xml version="1.0" encoding="utf-8"?>
<svg viewBox="20.199 207.583 162.834 96.021" xmlns="http://www.w3.org/2000/svg">
  <defs>
    <clipPath id="clipPath20" clipPathUnits="userSpaceOnUse">
      <path style="clip-rule:evenodd" id="path18" d="M 153.895,1120.15 Z M 3027.97,683.387 Z M 3031,1839.25 Z M 197.656,1823.4 c -29.195,-175.57 -45.129,-350.47 -46.781,-527.95 -0.535,-57.39 0.359,-117.81 3.027,-175.22 l -0.007,-0.08 c 3.207,-76.21 12.375,-405.162 74.761,-456.654 42.157,-34.801 321.043,-60.078 414.594,-68.105 149.203,-12.809 317.309,-22.707 472.42,-29.938 230.69,-10.754 432.83,-15.648 501.59,-15.496 303.83,0.68 607.02,16.313 909.71,45.676 131.04,12.715 444.82,38.32 481.33,66.324 7.59,5.816 14.62,13.316 19.67,21.43 9.48,15.289 13.79,45.679 18.78,82.652 l 13.42,117.715 c 35.31,315.936 28.15,626.566 -23.38,940.366 -0.81,4.94 -2.85,10.09 -5.79,15.13 -8.47,14.52 -26.04,30.11 -42.93,32.61 -455.41,67.47 -911.74,101.05 -1371.12,100.55 -460.25,-0.49 -919.731,-35.33 -1376.876,-102.44 -20.754,-3.05 -39.031,-26.24 -42.418,-46.57 z"/>
    </clipPath>
    <linearGradient id="linearGradient26" gradientTransform="matrix(0,-10,10,0,1616.39,1261.2)" gradientUnits="userSpaceOnUse" y2="0" x2="71.125397" y1="0" x1="-71.125397">
      <stop id="stop22" offset="0" style="stop-opacity:1;stop-color:#ffffff"/>
      <stop id="stop24" offset="1" style="stop-opacity:1;stop-color:#edf1ee"/>
    </linearGradient>
    <clipPath id="clipPath44" clipPathUnits="userSpaceOnUse">
      <path style="clip-rule:evenodd" id="path42" d="m 570.895,1426.46 c 1.937,0 3.871,-0.03 5.8,-0.07 h 8.024 c 22.941,0 53.351,-6.91 75.234,-14.09 110.274,-36.14 189.692,-137.58 189.692,-257.08 0,-19.86 -2.219,-39.22 -6.383,-57.87 H 706.156 c 8.012,17.7 12.469,37.28 12.469,57.87 0,79.39 -66.145,143.75 -147.73,143.75 -1.872,0 -3.731,-0.04 -5.582,-0.11 v 0.12 H 334.488 290.906 v 340 H 428.41 v -212.59 h 136.68 c 1.93,0.04 3.863,0.07 5.805,0.07 z M 298.523,1097.35 c -4.164,18.65 -6.382,38.01 -6.382,57.87 0,28.8 -0.328,56.26 -0.528,85.43 h 132.399 c -1.356,-28.04 -0.852,-54.69 -0.852,-85.43 0,-20.59 4.457,-40.17 12.469,-57.87 z m 2643.357,0 h -137.5 v 541.67 h 137.5 z m -172.02,0 h -137.11 c 8.01,17.7 12.47,37.28 12.47,57.87 0,79.39 -66.15,143.75 -147.74,143.75 -81.59,0 -147.73,-64.36 -147.73,-143.75 0,-20.59 4.46,-40.17 12.47,-57.87 h -137.1 c -4.17,18.65 -6.39,38.01 -6.39,57.87 0,149.8 124.81,271.24 278.75,271.24 153.95,0 278.75,-121.44 278.75,-271.24 0,-19.86 -2.21,-39.22 -6.37,-57.87 z m -578.8,0 h -138.09 c 0.16,38.36 0.29,76.69 0.29,114.98 0,43.81 -35.65,79.31 -79.63,79.31 -40.83,0 -74.49,-30.61 -79.09,-70.06 H 1894 v -9.25 -114.98 h -137.54 v 23.48 l -0.52,-0.16 c 0.11,30.57 0.19,61.13 0.19,91.66 0,43.81 -35.65,79.31 -79.63,79.31 -40.84,0 -74.49,-30.61 -79.09,-70.06 h -0.54 v -9.25 -49.01 -65.97 h -137.5 v 322.62 h 137.5 v -39.59 c 28.81,30.17 69.5,48.97 114.59,48.97 53.08,0 100.04,-26.04 128.71,-65.99 36.76,40.57 89.49,65.99 148.1,65.99 111.04,0 201.07,-91.28 201.07,-203.89 0,-0.78 -0.02,-1.57 -0.03,-2.36 h 1.75 z m -1171.68,0 H 882.277 c -4.164,18.65 -6.382,38.01 -6.382,57.87 0,149.8 124.805,271.24 278.745,271.24 153.95,0 278.75,-121.44 278.75,-271.24 0,-9.84 -0.54,-19.55 -1.6,-29.11 h -132.45 -27.88 -261.51 c 2.11,-10.01 5.3,-19.63 9.43,-28.76 z m 273.92,107.58 h -277.31 c 20.8,54.89 75.03,94.04 138.65,94.04 63.63,0 117.87,-39.15 138.66,-94.04 z"/>
    </clipPath>
    <linearGradient id="linearGradient52" gradientTransform="matrix(0,-10,10,0,1616.39,1368.19)" gradientUnits="userSpaceOnUse" y2="0" x2="27.083401" y1="0" x1="-27.083401">
      <stop id="stop46" offset="0" style="stop-opacity:1;stop-color:#00adef"/>
      <stop id="stop48" offset="0.7031" style="stop-opacity:1;stop-color:#1b97dc"/>
      <stop id="stop50" offset="1" style="stop-opacity:1;stop-color:#317cc9"/>
    </linearGradient>
  </defs>
  <g transform="matrix(0.458645, 0, 0, -0.458645, 28.457407, 313.341187)" id="g10" style="">
    <g transform="scale(0.1)" id="g12">
      <g id="g14">
        <g clip-path="url(#clipPath20)" id="g16">
          <path id="path28" style="fill:url(#linearGradient26);fill-opacity:1;fill-rule:nonzero;stroke:none" d="M 153.895,1120.15 Z M 3027.97,683.387 Z M 3031,1839.25 Z M 197.656,1823.4 c -29.195,-175.57 -45.129,-350.47 -46.781,-527.95 -0.535,-57.39 0.359,-117.81 3.027,-175.22 l -0.007,-0.08 c 3.207,-76.21 12.375,-405.162 74.761,-456.654 42.157,-34.801 321.043,-60.078 414.594,-68.105 149.203,-12.809 317.309,-22.707 472.42,-29.938 230.69,-10.754 432.83,-15.648 501.59,-15.496 303.83,0.68 607.02,16.313 909.71,45.676 131.04,12.715 444.82,38.32 481.33,66.324 7.59,5.816 14.62,13.316 19.67,21.43 9.48,15.289 13.79,45.679 18.78,82.652 l 13.42,117.715 c 35.31,315.936 28.15,626.566 -23.38,940.366 -0.81,4.94 -2.85,10.09 -5.79,15.13 -8.47,14.52 -26.04,30.11 -42.93,32.61 -455.41,67.47 -911.74,101.05 -1371.12,100.55 -460.25,-0.49 -919.731,-35.33 -1376.876,-102.44 -20.754,-3.05 -39.031,-26.24 -42.418,-46.57"/>
        </g>
      </g>
      <path id="path30" style="fill:#d93b29;fill-opacity:1;fill-rule:nonzero;stroke:none" d="m 243.863,1912.83 c 229.438,33.67 458.528,59.05 687.328,76.08 228.739,17.02 457.299,25.7 685.749,25.95 228.43,0.25 456.51,-7.93 684.3,-24.59 227.87,-16.66 455.54,-41.83 683.08,-75.56 10.08,-1.49 20.19,-5.07 29.77,-10.18 9.97,-5.32 19.37,-12.32 27.58,-20.37 8.18,-8.04 15.33,-17.3 20.81,-27.16 5.26,-9.46 8.99,-19.5 10.64,-29.56 12.95,-78.83 23.11,-157.61 30.52,-236.39 7.41,-78.76 12.05,-157.51 13.97,-236.31 1.92,-78.85 1.11,-157.67 -2.38,-236.5 -3.5,-78.89 -9.69,-157.81 -18.53,-236.802 -0.49,-4.278 -0.86,-7.723 -1.2,-10.856 l -1.04,-9.812 c -2.82,-26.731 -6.89,-65.391 -11.89,-101.028 -5.02,-35.84 -10.99,-68.722 -17.6,-83.703 -1.95,-4.426 -4.29,-8.824 -6.96,-13.113 -2.7,-4.348 -5.76,-8.625 -9.11,-12.762 -3.26,-4.023 -6.79,-7.891 -10.52,-11.527 -3.74,-3.645 -7.69,-7.074 -11.78,-10.211 -22.17,-17.008 -107.77,-32.219 -203.19,-44.559 -95.07,-12.289 -200.02,-21.801 -261.37,-27.359 l -20.75,-1.891 c -6.13,-0.562 -11.7,-1.086 -16.92,-1.594 -76.16,-7.398 -152.01,-13.902 -227.56,-19.488 -75.6,-5.59 -151.17,-10.297 -226.75,-14.097 -75.29,-3.79 -150.7,-6.688 -226.22,-8.676 -75.43,-1.989 -150.96,-3.074 -226.59,-3.246 -68.86,-0.161 -270.66,4.695 -500.37,15.367 -154.739,7.191 -322.095,17.015 -469.978,29.707 -117.14,10.055 -222.914,22.18 -302.254,36.629 -68.781,12.523 -117.812,26.886 -137.382,43.281 h -0.118 l -0.808,0.711 c -35.86,31.516 -56.762,120.398 -69.266,215.719 -12.445,94.886 -16.66,196.23 -19.031,253.34 l -0.641,15.16 -0.086,1.96 c -2.57,58.82 -3.586,117.58 -3.046,176.36 0.543,58.8 2.644,117.54 6.304,176.25 3.668,58.91 8.899,117.89 15.684,176.98 6.781,59.1 15.137,118.38 25.055,177.93 1.687,10.16 5.136,20.29 9.972,29.81 4.899,9.65 11.242,18.69 18.641,26.53 7.426,7.88 16,14.67 25.367,19.81 8.898,4.89 18.52,8.3 28.57,9.77 z m 1373.077,54.03 c -226.86,-0.25 -454.12,-8.9 -681.838,-25.86 -227.657,-16.97 -455.723,-42.25 -684.274,-75.79 -4.515,-0.66 -8.976,-2.32 -13.215,-4.75 -4.547,-2.6 -8.843,-6.08 -12.675,-10.15 -4.235,-4.49 -7.848,-9.59 -10.625,-14.97 -2.727,-5.29 -4.653,-10.84 -5.567,-16.34 -9.773,-58.68 -18.012,-117.15 -24.707,-175.46 -6.699,-58.3 -11.855,-116.4 -15.465,-174.36 -3.621,-58.16 -5.707,-116.14 -6.246,-174 -0.539,-57.89 0.457,-115.78 2.992,-173.72 l 0.012,-0.12 v -0.09 h -0.008 l 0.723,-17.1 c 2.254,-54.41 6.273,-150.97 16.844,-240.263 10.504,-88.735 27.398,-170.047 55.261,-194.535 l 1.348,-1.188 c 15.84,-12.277 59.773,-23.726 122.75,-34.273 74.637,-12.5 175.785,-23.614 288.605,-33.297 148.04,-12.707 314.829,-22.531 468.725,-29.703 228.9,-10.672 429.45,-15.528 497.67,-15.375 74.84,0.168 149.8,1.254 224.91,3.246 75,1.984 150.22,4.886 225.64,8.676 75.14,3.785 150.42,8.468 225.87,14.042 75.49,5.583 150.88,12.04 226.18,19.356 3.81,0.367 9.16,0.867 15.69,1.465 l 22.17,2.015 0.25,0.024 v 0 h 0.01 c 119,10.781 406.26,36.836 439.46,62.297 2.61,2 5.12,4.183 7.5,6.504 2.39,2.324 4.64,4.785 6.7,7.332 1.93,2.375 3.71,4.867 5.3,7.429 h 0.01 c 1.52,2.45 2.86,4.973 3.99,7.524 5.07,11.508 10.16,41.265 14.64,74.484 4.51,33.379 8.39,70.258 11.08,95.758 v 0.008 l 0.07,0.605 c 1.01,9.672 1.9,18.039 2.17,20.426 8.75,78.18 14.88,156.133 18.34,233.883 3.46,77.82 4.27,155.47 2.38,233.02 -1.89,77.59 -6.48,155.19 -13.78,232.85 -7.31,77.63 -17.35,155.37 -30.14,233.26 -0.81,4.91 -2.83,10.01 -5.74,15.01 v 0 c -3.11,5.33 -7.23,10.51 -11.97,15.16 -4.75,4.67 -10.01,8.69 -15.39,11.69 -5.07,2.83 -10.26,4.77 -15.23,5.51 -226.66,33.59 -453.29,58.66 -679.98,75.26 -226.76,16.61 -453.55,24.75 -680.44,24.51"/>
      <path id="path32" style="fill:#d93b29;fill-opacity:1;fill-rule:nonzero;stroke:none" d="m 146.559,1999.43 c 245.918,38.34 491.312,67.25 736.261,86.63 244.96,19.39 489.65,29.26 734.16,29.55 244.49,0.28 488.67,-9.02 732.62,-28 243.95,-18.97 487.82,-47.63 731.7,-86.04 10.74,-1.69 21.48,-5.71 31.62,-11.43 10.58,-5.97 20.51,-13.8 29.13,-22.8 8.54,-8.9 15.99,-19.13 21.69,-30 v 0.01 c 5.46,-10.4 9.33,-21.42 11.04,-32.44 13.88,-89.83 24.77,-179.42 32.68,-268.85 7.92,-89.43 12.88,-178.94 14.94,-268.58 2.05,-89.55 1.19,-179.1 -2.56,-268.71 -3.74,-89.65 -10.37,-179.364 -19.83,-269.219 l -1.18,-11.434 -1.22,-12.222 c -3,-30.274 -7.34,-74.051 -12.66,-114.45 -5.32,-40.535 -11.65,-77.664 -18.59,-94.394 -2.05,-4.926 -4.49,-9.797 -7.25,-14.528 l -0.01,0.004 c -2.81,-4.836 -5.99,-9.554 -9.43,-14.07 -3.4,-4.457 -7.1,-8.766 -11.04,-12.832 h -0.01 c -3.96,-4.098 -8.14,-7.941 -12.45,-11.461 -23.64,-19.273 -115.2,-36.535 -217.31,-50.551 -101.7,-13.953 -214.07,-24.781 -279.78,-31.105 l -21.57,-2.086 c -6.51,-0.641 -12.63,-1.25 -18.71,-1.879 -81.45,-8.41 -162.63,-15.809 -243.57,-22.168 -80.94,-6.359 -161.93,-11.711 -242.97,-16.043 -80.64,-4.312 -161.39,-7.609 -242.28,-9.875 -80.77,-2.258 -161.66,-3.5 -242.67,-3.695 -73.61,-0.176 -289.57,5.355 -535.61,17.523 -165.559,8.188 -344.817,19.391 -503.622,33.875 -125.504,11.445 -238.726,25.211 -323.476,41.559 -74.618,14.394 -127.454,30.906 -147.629,49.746 C 69.0625,584.871 46.9375,685.41 33.6836,793.324 20.4922,900.699 15.9922,1015.67 13.4609,1080.45 l -0.7773,19.59 c -2.75391,66.85 -3.83985,133.64 -3.26172,200.43 0.58202,66.82 2.83202,133.58 6.74612,200.35 3.914,66.82 9.5078,133.79 16.7734,200.98 7.2617,67.13 16.207,134.57 26.8359,202.4 1.754,11.18 5.3282,22.32 10.3516,32.82 5.0938,10.63 11.6836,20.62 19.3789,29.29 7.8164,8.81 16.8632,16.4 26.7622,22.16 9.402,5.46 19.605,9.3 30.289,10.96 z m 1470.421,68.18 c -243.1,-0.29 -486.56,-10.13 -730.437,-29.42 -243.895,-19.3 -488.078,-48.06 -732.641,-86.2 -4.91,-0.76 -9.793,-2.71 -14.453,-5.56 -4.992,-3.05 -9.73,-7.15 -13.988,-11.94 h -0.004 c -4.75,-5.35 -8.812,-11.46 -11.945,-17.94 -3.082,-6.36 -5.262,-13.06 -6.301,-19.7 -10.4571,-66.72 -19.2813,-133.3 -26.461,-199.78 -7.1719,-66.42 -12.7031,-132.69 -16.582,-198.89 -3.8828,-66.24 -6.1172,-132.3 -6.6914,-198.26 -0.5782,-65.98 0.4882,-131.96 3.207,-197.99 l 0.7812,-19.6 v -0.01 C 63.8945,1020.14 68.2109,909.789 79.6563,807.711 91.0352,706.164 109.387,613.008 139.73,584.664 155.398,570.035 203.375,556.457 273.02,544.008 353.18,529.68 461.605,516.992 582.41,505.969 740.496,491.551 919.051,480.395 1084,472.23 c 245.14,-12.125 460.11,-17.636 533.31,-17.464 80.14,0.191 160.42,1.429 240.85,3.691 80.33,2.262 160.88,5.559 241.65,9.879 80.37,4.293 160.94,9.629 241.74,15.977 80.82,6.347 161.59,13.699 242.36,22.039 3.43,0.351 9.05,0.91 16.24,1.609 l 24.4,2.355 0.06,0.004 h 0.01 c 127.36,12.266 435.46,41.946 471.24,71.114 2.82,2.3 5.57,4.839 8.19,7.558 2.61,2.715 5.1,5.613 7.41,8.641 2.21,2.898 4.22,5.883 5.99,8.894 1.71,2.926 3.22,5.934 4.48,8.973 5.57,13.41 11.09,47.563 15.94,85.605 4.85,38.137 9.04,80.325 11.93,109.497 l 1.39,13.925 1.01,9.922 c 9.38,89.031 15.94,177.831 19.65,266.461 3.71,88.67 4.57,177.2 2.54,265.63 -2.02,88.35 -6.94,176.79 -14.77,265.37 -7.84,88.59 -18.59,177.13 -32.28,265.65 -0.93,6.04 -3.22,12.27 -6.52,18.32 -3.48,6.4 -8.09,12.6 -13.41,18.14 -5.24,5.47 -11.01,10.18 -16.91,13.69 -5.54,3.32 -11.18,5.58 -16.54,6.42 -242.53,38.2 -485.19,66.71 -728.04,85.6 -242.87,18.89 -485.82,28.16 -728.94,27.88"/>
      <path id="path34" style="fill:#0084c7;fill-opacity:1;fill-rule:evenodd;stroke:none" d="m 570.895,1426.46 c 1.937,0 3.871,-0.03 5.8,-0.07 h 8.024 c 22.941,0 53.351,-6.91 75.234,-14.09 110.274,-36.14 189.692,-137.58 189.692,-257.08 0,-149.81 -124.801,-271.251 -278.75,-271.251 -153.954,0 -278.754,121.441 -278.754,271.251 0,28.8 -0.328,56.26 -0.528,85.43 h 132.399 c -1.356,-28.04 -0.852,-54.69 -0.852,-85.43 0,-79.4 66.145,-143.76 147.735,-143.76 81.585,0 147.73,64.36 147.73,143.76 0,79.39 -66.145,143.75 -147.73,143.75 -1.872,0 -3.731,-0.04 -5.582,-0.11 v 0.12 H 334.488 290.906 v 340 H 428.41 v -212.59 h 136.68 c 1.93,0.04 3.863,0.07 5.805,0.07 z M 2189.31,1223.1 h 1.75 V 883.348 h -137.5 v 149.222 l -0.9,-0.31 c 0.3,60.07 0.6,120.13 0.6,180.07 0,43.81 -35.65,79.31 -79.63,79.31 -40.83,0 -74.49,-30.61 -79.09,-70.06 H 1894 v -9.25 -166.99 l -0.04,0.02 V 883.348 h -137.5 v 237.482 l -0.52,-0.16 c 0.11,30.57 0.19,61.13 0.19,91.66 0,43.81 -35.65,79.31 -79.63,79.31 -40.84,0 -74.49,-30.61 -79.09,-70.06 h -0.54 v -9.25 -49.01 -279.972 h -137.5 v 536.622 h 137.5 v -39.59 c 28.81,30.17 69.5,48.97 114.59,48.97 53.08,0 100.04,-26.04 128.71,-65.99 36.76,40.57 89.49,65.99 148.1,65.99 111.04,0 201.07,-91.28 201.07,-203.89 0,-0.78 -0.02,-1.57 -0.03,-2.36 z m 615.07,415.92 h 137.5 v -750 h -137.5 z m -306.9,-212.56 c 153.95,0 278.75,-121.44 278.75,-271.24 0,-149.81 -124.8,-271.251 -278.75,-271.251 -153.94,0 -278.75,121.441 -278.75,271.251 0,149.8 124.81,271.24 278.75,271.24 z m 0,-127.49 c 81.59,0 147.74,-64.36 147.74,-143.75 0,-79.4 -66.15,-143.76 -147.74,-143.76 -81.59,0 -147.73,64.36 -147.73,143.76 0,79.39 66.14,143.75 147.73,143.75 z m -1342.84,127.49 c 153.95,0 278.75,-121.44 278.75,-271.24 0,-9.84 -0.54,-19.55 -1.6,-29.11 h -132.45 -27.88 -261.51 c 13.83,-65.44 73.35,-114.65 144.69,-114.65 55.12,0 103.18,29.38 128.57,72.92 h 140.56 C 1391.75,968.93 1283.4,883.969 1154.64,883.969 c -153.94,0 -278.745,121.441 -278.745,271.251 0,149.8 124.805,271.24 278.745,271.24 z m 138.66,-221.53 h -277.31 c 20.8,54.89 75.03,94.04 138.65,94.04 63.63,0 117.87,-39.15 138.66,-94.04"/>
      <path id="path36" style="fill:#0084c7;fill-opacity:1;fill-rule:evenodd;stroke:none" d="m 570.895,1426.46 c 1.937,0 3.871,-0.03 5.8,-0.07 h 8.024 c 22.941,0 53.351,-6.91 75.234,-14.09 110.274,-36.14 189.692,-137.58 189.692,-257.08 0,-19.86 -2.219,-39.22 -6.383,-57.87 H 706.156 c 8.012,17.7 12.469,37.28 12.469,57.87 0,79.39 -66.145,143.75 -147.73,143.75 -1.872,0 -3.731,-0.04 -5.582,-0.11 v 0.12 H 334.488 290.906 v 340 H 428.41 v -212.59 h 136.68 c 1.93,0.04 3.863,0.07 5.805,0.07 z M 298.523,1097.35 c -4.164,18.65 -6.382,38.01 -6.382,57.87 0,28.8 -0.328,56.26 -0.528,85.43 h 132.399 c -1.356,-28.04 -0.852,-54.69 -0.852,-85.43 0,-20.59 4.457,-40.17 12.469,-57.87 z m 2643.357,0 h -137.5 v 541.67 h 137.5 z m -172.02,0 h -137.11 c 8.01,17.7 12.47,37.28 12.47,57.87 0,79.39 -66.15,143.75 -147.74,143.75 -81.59,0 -147.73,-64.36 -147.73,-143.75 0,-20.59 4.46,-40.17 12.47,-57.87 h -137.1 c -4.17,18.65 -6.39,38.01 -6.39,57.87 0,149.8 124.81,271.24 278.75,271.24 153.95,0 278.75,-121.44 278.75,-271.24 0,-19.86 -2.21,-39.22 -6.37,-57.87 z m -578.8,0 h -138.09 c 0.16,38.36 0.29,76.69 0.29,114.98 0,43.81 -35.65,79.31 -79.63,79.31 -40.83,0 -74.49,-30.61 -79.09,-70.06 H 1894 v -9.25 -114.98 h -137.54 v 23.48 l -0.52,-0.16 c 0.11,30.57 0.19,61.13 0.19,91.66 0,43.81 -35.65,79.31 -79.63,79.31 -40.84,0 -74.49,-30.61 -79.09,-70.06 h -0.54 v -9.25 -49.01 -65.97 h -137.5 v 322.62 h 137.5 v -39.59 c 28.81,30.17 69.5,48.97 114.59,48.97 53.08,0 100.04,-26.04 128.71,-65.99 36.76,40.57 89.49,65.99 148.1,65.99 111.04,0 201.07,-91.28 201.07,-203.89 0,-0.78 -0.02,-1.57 -0.03,-2.36 h 1.75 z m -1171.68,0 H 882.277 c -4.164,18.65 -6.382,38.01 -6.382,57.87 0,149.8 124.805,271.24 278.745,271.24 153.95,0 278.75,-121.44 278.75,-271.24 0,-9.84 -0.54,-19.55 -1.6,-29.11 h -132.45 -27.88 -261.51 c 2.11,-10.01 5.3,-19.63 9.43,-28.76 z m 273.92,107.58 h -277.31 c 20.8,54.89 75.03,94.04 138.65,94.04 63.63,0 117.87,-39.15 138.66,-94.04"/>
      <g id="g38">
        <g clip-path="url(#clipPath44)" id="g40">
          <path id="path54" style="fill:url(#linearGradient52);fill-opacity:1;fill-rule:nonzero;stroke:none" d="m 570.895,1426.46 c 1.937,0 3.871,-0.03 5.8,-0.07 h 8.024 c 22.941,0 53.351,-6.91 75.234,-14.09 110.274,-36.14 189.692,-137.58 189.692,-257.08 0,-19.86 -2.219,-39.22 -6.383,-57.87 H 706.156 c 8.012,17.7 12.469,37.28 12.469,57.87 0,79.39 -66.145,143.75 -147.73,143.75 -1.872,0 -3.731,-0.04 -5.582,-0.11 v 0.12 H 334.488 290.906 v 340 H 428.41 v -212.59 h 136.68 c 1.93,0.04 3.863,0.07 5.805,0.07 z M 298.523,1097.35 c -4.164,18.65 -6.382,38.01 -6.382,57.87 0,28.8 -0.328,56.26 -0.528,85.43 h 132.399 c -1.356,-28.04 -0.852,-54.69 -0.852,-85.43 0,-20.59 4.457,-40.17 12.469,-57.87 z m 2643.357,0 h -137.5 v 541.67 h 137.5 z m -172.02,0 h -137.11 c 8.01,17.7 12.47,37.28 12.47,57.87 0,79.39 -66.15,143.75 -147.74,143.75 -81.59,0 -147.73,-64.36 -147.73,-143.75 0,-20.59 4.46,-40.17 12.47,-57.87 h -137.1 c -4.17,18.65 -6.39,38.01 -6.39,57.87 0,149.8 124.81,271.24 278.75,271.24 153.95,0 278.75,-121.44 278.75,-271.24 0,-19.86 -2.21,-39.22 -6.37,-57.87 z m -578.8,0 h -138.09 c 0.16,38.36 0.29,76.69 0.29,114.98 0,43.81 -35.65,79.31 -79.63,79.31 -40.83,0 -74.49,-30.61 -79.09,-70.06 H 1894 v -9.25 -114.98 h -137.54 v 23.48 l -0.52,-0.16 c 0.11,30.57 0.19,61.13 0.19,91.66 0,43.81 -35.65,79.31 -79.63,79.31 -40.84,0 -74.49,-30.61 -79.09,-70.06 h -0.54 v -9.25 -49.01 -65.97 h -137.5 v 322.62 h 137.5 v -39.59 c 28.81,30.17 69.5,48.97 114.59,48.97 53.08,0 100.04,-26.04 128.71,-65.99 36.76,40.57 89.49,65.99 148.1,65.99 111.04,0 201.07,-91.28 201.07,-203.89 0,-0.78 -0.02,-1.57 -0.03,-2.36 h 1.75 z m -1171.68,0 H 882.277 c -4.164,18.65 -6.382,38.01 -6.382,57.87 0,149.8 124.805,271.24 278.745,271.24 153.95,0 278.75,-121.44 278.75,-271.24 0,-9.84 -0.54,-19.55 -1.6,-29.11 h -132.45 -27.88 -261.51 c 2.11,-10.01 5.3,-19.63 9.43,-28.76 z m 273.92,107.58 h -277.31 c 20.8,54.89 75.03,94.04 138.65,94.04 63.63,0 117.87,-39.15 138.66,-94.04"/>
        </g>
      </g>
    </g>
  </g>
</svg>